<svg width="800" height="600" viewBox="0 0 800 600" fill="none" xmlns="http://www.w3.org/2000/svg">
  <rect width="800" height="600" rx="28" fill="#E8F3E4"/>
  <rect y="420" width="800" height="180" fill="#D4E5C8"/>
  <circle cx="680" cy="120" r="52" fill="#F2D27C"/>
  <rect x="90" y="250" width="38" height="200" rx="12" fill="#7A5C43"/>
  <circle cx="109" cy="220" r="70" fill="#4D7C57"/>
  <circle cx="72" cy="240" r="52" fill="#628E63"/>
  <circle cx="148" cy="248" r="48" fill="#3F6F4A"/>
  <rect x="310" y="215" width="42" height="235" rx="12" fill="#7A5C43"/>
  <circle cx="332" cy="185" r="82" fill="#5B8B5D"/>
  <circle cx="274" cy="222" r="58" fill="#4D7C57"/>
  <circle cx="392" cy="228" r="54" fill="#6D9A6B"/>
  <rect x="565" y="280" width="34" height="170" rx="12" fill="#7A5C43"/>
  <circle cx="582" cy="254" r="62" fill="#4D7C57"/>
  <circle cx="543" cy="278" r="46" fill="#628E63"/>
  <circle cx="622" cy="286" r="42" fill="#3F6F4A"/>
  <rect x="455" y="360" width="170" height="60" rx="14" fill="#F5EFE4"/>
  <rect x="470" y="310" width="18" height="110" fill="#C8D8BB"/>
  <rect x="592" y="310" width="18" height="110" fill="#C8D8BB"/>
  <path d="M70 455C150 430 205 430 285 455" stroke="#7A5C43" stroke-width="10" stroke-linecap="round"/>
  <path d="M282 455C360 430 430 430 500 455" stroke="#7A5C43" stroke-width="10" stroke-linecap="round"/>
  <path d="M500 455C575 430 660 430 735 455" stroke="#7A5C43" stroke-width="10" stroke-linecap="round"/>
</svg>
